<mxfile host="app.diagrams.net" agent="Mozilla/5.0 (Windows NT 10.0; Win64; x64) AppleWebKit/537.36 (KHTML, like Gecko) Chrome/134.0.0.0 Safari/537.36" version="26.1.1">
  <diagram name="Страница — 1" id="BemVVzxOU5iVsDrlsOyV">
    <mxGraphModel dx="1434" dy="780" grid="1" gridSize="10" guides="1" tooltips="1" connect="1" arrows="1" fold="1" page="1" pageScale="1" pageWidth="827" pageHeight="1169" math="0" shadow="0">
      <root>
        <mxCell id="0" />
        <mxCell id="1" parent="0" />
        <mxCell id="4eBNM7iaJ-U1HfiIDBC7-6" value="&lt;span style=&quot;color: rgb(33, 37, 41); font-family: system-ui, -apple-system, &amp;quot;Segoe UI&amp;quot;, Roboto, &amp;quot;Helvetica Neue&amp;quot;, &amp;quot;Noto Sans&amp;quot;, &amp;quot;Liberation Sans&amp;quot;, Arial, sans-serif, &amp;quot;Apple Color Emoji&amp;quot;, &amp;quot;Segoe UI Emoji&amp;quot;, &amp;quot;Segoe UI Symbol&amp;quot;, &amp;quot;Noto Color Emoji&amp;quot;; font-size: 16px; text-align: start; background-color: rgb(255, 255, 255);&quot;&gt;заказ зарегистрирован в системе.&lt;/span&gt;" style="text;html=1;align=center;verticalAlign=middle;whiteSpace=wrap;rounded=0;" vertex="1" parent="1">
          <mxGeometry x="140" y="270" width="210" height="70" as="geometry" />
        </mxCell>
        <mxCell id="4eBNM7iaJ-U1HfiIDBC7-10" value="&lt;span style=&quot;color: rgb(33, 37, 41); font-family: system-ui, -apple-system, &amp;quot;Segoe UI&amp;quot;, Roboto, &amp;quot;Helvetica Neue&amp;quot;, &amp;quot;Noto Sans&amp;quot;, &amp;quot;Liberation Sans&amp;quot;, Arial, sans-serif, &amp;quot;Apple Color Emoji&amp;quot;, &amp;quot;Segoe UI Emoji&amp;quot;, &amp;quot;Segoe UI Symbol&amp;quot;, &amp;quot;Noto Color Emoji&amp;quot;; font-size: 16px; text-align: start; background-color: rgb(255, 255, 255);&quot;&gt;клиент произвел оплату.&lt;/span&gt;" style="text;html=1;align=center;verticalAlign=middle;whiteSpace=wrap;rounded=0;" vertex="1" parent="1">
          <mxGeometry x="370" y="390" width="165" height="50" as="geometry" />
        </mxCell>
        <mxCell id="4eBNM7iaJ-U1HfiIDBC7-11" value="Заказ" style="rounded=1;whiteSpace=wrap;html=1;arcSize=40;fontColor=#000000;fillColor=#ffffc0;strokeColor=#ff0000;" vertex="1" parent="1">
          <mxGeometry x="315" y="330" width="120" height="40" as="geometry" />
        </mxCell>
        <mxCell id="4eBNM7iaJ-U1HfiIDBC7-12" value="" style="edgeStyle=orthogonalEdgeStyle;html=1;verticalAlign=bottom;endArrow=open;endSize=8;strokeColor=#ff0000;rounded=0;entryX=0.5;entryY=0;entryDx=0;entryDy=0;" edge="1" source="4eBNM7iaJ-U1HfiIDBC7-11" parent="1" target="4eBNM7iaJ-U1HfiIDBC7-16">
          <mxGeometry relative="1" as="geometry">
            <mxPoint x="375" y="430" as="targetPoint" />
          </mxGeometry>
        </mxCell>
        <mxCell id="4eBNM7iaJ-U1HfiIDBC7-14" value="" style="ellipse;html=1;shape=startState;fillColor=#000000;strokeColor=#ff0000;" vertex="1" parent="1">
          <mxGeometry x="130" y="335" width="30" height="30" as="geometry" />
        </mxCell>
        <mxCell id="4eBNM7iaJ-U1HfiIDBC7-15" value="" style="edgeStyle=orthogonalEdgeStyle;html=1;verticalAlign=bottom;endArrow=open;endSize=8;strokeColor=#ff0000;rounded=0;entryX=0;entryY=0.5;entryDx=0;entryDy=0;" edge="1" source="4eBNM7iaJ-U1HfiIDBC7-14" parent="1" target="4eBNM7iaJ-U1HfiIDBC7-11">
          <mxGeometry relative="1" as="geometry">
            <mxPoint x="65" y="370" as="targetPoint" />
          </mxGeometry>
        </mxCell>
        <mxCell id="4eBNM7iaJ-U1HfiIDBC7-16" value="&lt;div style=&quot;text-align: start;&quot;&gt;Оплачен&lt;/div&gt;" style="rounded=1;whiteSpace=wrap;html=1;arcSize=40;fontColor=#000000;fillColor=#ffffc0;strokeColor=#ff0000;" vertex="1" parent="1">
          <mxGeometry x="315" y="450" width="120" height="40" as="geometry" />
        </mxCell>
        <mxCell id="4eBNM7iaJ-U1HfiIDBC7-17" value="" style="edgeStyle=orthogonalEdgeStyle;html=1;verticalAlign=bottom;endArrow=open;endSize=8;strokeColor=#ff0000;rounded=0;entryX=0.5;entryY=0;entryDx=0;entryDy=0;" edge="1" source="4eBNM7iaJ-U1HfiIDBC7-16" parent="1" target="4eBNM7iaJ-U1HfiIDBC7-18">
          <mxGeometry relative="1" as="geometry">
            <mxPoint x="375" y="550" as="targetPoint" />
          </mxGeometry>
        </mxCell>
        <mxCell id="4eBNM7iaJ-U1HfiIDBC7-18" value="Отправлен" style="rounded=1;whiteSpace=wrap;html=1;arcSize=40;fontColor=#000000;fillColor=#ffffc0;strokeColor=#ff0000;" vertex="1" parent="1">
          <mxGeometry x="315" y="570" width="120" height="40" as="geometry" />
        </mxCell>
        <mxCell id="4eBNM7iaJ-U1HfiIDBC7-19" value="" style="edgeStyle=orthogonalEdgeStyle;html=1;verticalAlign=bottom;endArrow=open;endSize=8;strokeColor=#ff0000;rounded=0;entryX=0.5;entryY=0;entryDx=0;entryDy=0;" edge="1" source="4eBNM7iaJ-U1HfiIDBC7-18" parent="1" target="4eBNM7iaJ-U1HfiIDBC7-21">
          <mxGeometry relative="1" as="geometry">
            <mxPoint x="375" y="670" as="targetPoint" />
          </mxGeometry>
        </mxCell>
        <mxCell id="4eBNM7iaJ-U1HfiIDBC7-20" value="&lt;span style=&quot;color: rgb(33, 37, 41); font-family: system-ui, -apple-system, &amp;quot;Segoe UI&amp;quot;, Roboto, &amp;quot;Helvetica Neue&amp;quot;, &amp;quot;Noto Sans&amp;quot;, &amp;quot;Liberation Sans&amp;quot;, Arial, sans-serif, &amp;quot;Apple Color Emoji&amp;quot;, &amp;quot;Segoe UI Emoji&amp;quot;, &amp;quot;Segoe UI Symbol&amp;quot;, &amp;quot;Noto Color Emoji&amp;quot;; font-size: 16px; text-align: start; background-color: rgb(255, 255, 255);&quot;&gt;товар передан в службу доставки.&lt;/span&gt;" style="text;html=1;align=center;verticalAlign=middle;whiteSpace=wrap;rounded=0;" vertex="1" parent="1">
          <mxGeometry x="375" y="510" width="160" height="40" as="geometry" />
        </mxCell>
        <mxCell id="4eBNM7iaJ-U1HfiIDBC7-21" value="Доставлен" style="rounded=1;whiteSpace=wrap;html=1;arcSize=40;fontColor=#000000;fillColor=#ffffc0;strokeColor=#ff0000;" vertex="1" parent="1">
          <mxGeometry x="315" y="690" width="120" height="40" as="geometry" />
        </mxCell>
        <mxCell id="4eBNM7iaJ-U1HfiIDBC7-22" value="" style="edgeStyle=orthogonalEdgeStyle;html=1;verticalAlign=bottom;endArrow=open;endSize=8;strokeColor=#ff0000;rounded=0;entryX=0.5;entryY=0;entryDx=0;entryDy=0;" edge="1" source="4eBNM7iaJ-U1HfiIDBC7-21" parent="1" target="4eBNM7iaJ-U1HfiIDBC7-24">
          <mxGeometry relative="1" as="geometry">
            <mxPoint x="375" y="780" as="targetPoint" />
          </mxGeometry>
        </mxCell>
        <mxCell id="4eBNM7iaJ-U1HfiIDBC7-23" value="&lt;span style=&quot;color: rgb(33, 37, 41); font-family: system-ui, -apple-system, &amp;quot;Segoe UI&amp;quot;, Roboto, &amp;quot;Helvetica Neue&amp;quot;, &amp;quot;Noto Sans&amp;quot;, &amp;quot;Liberation Sans&amp;quot;, Arial, sans-serif, &amp;quot;Apple Color Emoji&amp;quot;, &amp;quot;Segoe UI Emoji&amp;quot;, &amp;quot;Segoe UI Symbol&amp;quot;, &amp;quot;Noto Color Emoji&amp;quot;; font-size: 16px; text-align: start; background-color: rgb(255, 255, 255);&quot;&gt;клиент получил заказ.&lt;/span&gt;" style="text;html=1;align=center;verticalAlign=middle;whiteSpace=wrap;rounded=0;" vertex="1" parent="1">
          <mxGeometry x="400" y="630" width="120" height="40" as="geometry" />
        </mxCell>
        <mxCell id="4eBNM7iaJ-U1HfiIDBC7-24" value="Закрыт" style="rounded=1;whiteSpace=wrap;html=1;arcSize=40;fontColor=#000000;fillColor=#ffffc0;strokeColor=#ff0000;" vertex="1" parent="1">
          <mxGeometry x="435" y="790" width="120" height="40" as="geometry" />
        </mxCell>
        <mxCell id="4eBNM7iaJ-U1HfiIDBC7-25" value="" style="edgeStyle=orthogonalEdgeStyle;html=1;verticalAlign=bottom;endArrow=open;endSize=8;strokeColor=#ff0000;rounded=0;entryX=0;entryY=0.5;entryDx=0;entryDy=0;" edge="1" source="4eBNM7iaJ-U1HfiIDBC7-24" parent="1" target="4eBNM7iaJ-U1HfiIDBC7-27">
          <mxGeometry relative="1" as="geometry">
            <mxPoint x="375" y="900" as="targetPoint" />
          </mxGeometry>
        </mxCell>
        <mxCell id="4eBNM7iaJ-U1HfiIDBC7-26" value="&lt;span style=&quot;color: rgb(33, 37, 41); font-family: system-ui, -apple-system, &amp;quot;Segoe UI&amp;quot;, Roboto, &amp;quot;Helvetica Neue&amp;quot;, &amp;quot;Noto Sans&amp;quot;, &amp;quot;Liberation Sans&amp;quot;, Arial, sans-serif, &amp;quot;Apple Color Emoji&amp;quot;, &amp;quot;Segoe UI Emoji&amp;quot;, &amp;quot;Segoe UI Symbol&amp;quot;, &amp;quot;Noto Color Emoji&amp;quot;; font-size: 16px; text-align: start; background-color: rgb(255, 255, 255);&quot;&gt;заказ завершен&lt;/span&gt;" style="text;html=1;align=center;verticalAlign=middle;whiteSpace=wrap;rounded=0;" vertex="1" parent="1">
          <mxGeometry x="447.5" y="710" width="95" height="40" as="geometry" />
        </mxCell>
        <mxCell id="4eBNM7iaJ-U1HfiIDBC7-27" value="" style="ellipse;html=1;shape=endState;fillColor=#000000;strokeColor=#ff0000;" vertex="1" parent="1">
          <mxGeometry x="550" y="870" width="30" height="30" as="geometry" />
        </mxCell>
        <mxCell id="4eBNM7iaJ-U1HfiIDBC7-30" value="Создан" style="text;html=1;align=center;verticalAlign=middle;whiteSpace=wrap;rounded=0;" vertex="1" parent="1">
          <mxGeometry x="70" y="310" width="60" height="30" as="geometry" />
        </mxCell>
        <mxCell id="4eBNM7iaJ-U1HfiIDBC7-31" value="Закончен" style="text;html=1;align=center;verticalAlign=middle;whiteSpace=wrap;rounded=0;" vertex="1" parent="1">
          <mxGeometry x="580" y="840" width="60" height="30" as="geometry" />
        </mxCell>
      </root>
    </mxGraphModel>
  </diagram>
</mxfile>
